<svg width="62" height="20" viewBox="0 0 62 20" fill="none" xmlns="http://www.w3.org/2000/svg">
<path d="M6.808 15.472C5.76267 15.472 4.80267 15.3173 3.928 15.008C3.064 14.6987 2.36533 14.2453 1.832 13.648C1.29867 13.04 1.00533 12.2933 0.952 11.408C0.930667 11.0453 0.989333 10.6453 1.128 10.208C1.26667 9.77067 1.45867 9.33867 1.704 8.912C1.96 8.47467 2.25867 8.08533 2.6 7.744C2.952 7.392 3.32533 7.12533 3.72 6.944C3.752 6.92267 3.8 6.90667 3.864 6.896C3.93867 6.88533 3.992 6.88 4.024 6.88C4.088 6.88 4.12 6.896 4.12 6.928C4.12 6.98133 4.04 7.06667 3.88 7.184C3.432 7.536 3.064 7.94133 2.776 8.4C2.47733 8.85867 2.25333 9.34933 2.104 9.872C1.95467 10.3947 1.88 10.9227 1.88 11.456C1.88 12.0853 2.01333 12.6293 2.28 13.088C2.55733 13.536 2.92533 13.904 3.384 14.192C3.84267 14.4907 4.36533 14.7093 4.952 14.848C5.53867 14.9867 6.152 15.056 6.792 15.056C7.50667 15.056 8.21067 14.976 8.904 14.816C9.608 14.656 10.248 14.4267 10.824 14.128C11.7093 13.6587 12.408 13.0773 12.92 12.384C13.4427 11.6907 13.704 11.0027 13.704 10.32C13.704 9.95733 13.624 9.61067 13.464 9.28C13.3147 8.94933 13.0693 8.65067 12.728 8.384C12.472 8.18133 12.1573 7.98933 11.784 7.808C11.4213 7.62667 11.032 7.45067 10.616 7.28C10.2107 7.10933 9.81067 6.93867 9.416 6.768C9.02133 6.58667 8.67467 6.39467 8.376 6.192C7.94933 5.904 7.63467 5.59467 7.432 5.264C7.24 4.93333 7.144 4.60267 7.144 4.272C7.144 3.87733 7.256 3.49333 7.48 3.12C7.71467 2.74667 8.02933 2.41067 8.424 2.112C8.82933 1.80267 9.28267 1.56267 9.784 1.392C10.2213 1.24267 10.696 1.12533 11.208 1.04C11.7307 0.954666 12.2427 0.912 12.744 0.912C13.16 0.912 13.5547 0.944 13.928 1.008C14.312 1.06133 14.648 1.16267 14.936 1.312C15.2987 1.48267 15.576 1.712 15.768 2C15.96 2.27733 16.056 2.57067 16.056 2.88C16.056 3.30667 15.864 3.68 15.48 4C15.3413 4.10667 15.1867 4.208 15.016 4.304C14.8453 4.38933 14.6427 4.464 14.408 4.528C14.3653 4.53867 14.3173 4.544 14.264 4.544C14.136 4.544 14.072 4.50667 14.072 4.432C14.072 4.38933 14.104 4.34667 14.168 4.304C14.2427 4.25067 14.3493 4.21867 14.488 4.208C14.808 4.16533 15.048 4.04267 15.208 3.84C15.3787 3.63733 15.464 3.40267 15.464 3.136C15.464 2.85867 15.368 2.58667 15.176 2.32C14.9947 2.04267 14.712 1.81333 14.328 1.632C13.944 1.44 13.4533 1.344 12.856 1.344C12.5147 1.344 12.136 1.38133 11.72 1.456C11.3147 1.53067 10.872 1.65333 10.392 1.824C9.80533 2.02667 9.31467 2.32533 8.92 2.72C8.536 3.11467 8.344 3.536 8.344 3.984C8.344 4.26133 8.43467 4.544 8.616 4.832C8.808 5.10933 9.112 5.376 9.528 5.632C9.88 5.84533 10.28 6.05867 10.728 6.272C11.176 6.47467 11.6293 6.68267 12.088 6.896C12.5467 7.09867 12.9627 7.31733 13.336 7.552C13.9227 7.91467 14.344 8.304 14.6 8.72C14.856 9.136 14.984 9.56267 14.984 10C14.984 10.512 14.8293 11.0293 14.52 11.552C14.2213 12.064 13.8267 12.5493 13.336 13.008C12.8453 13.456 12.3067 13.856 11.72 14.208C11.0373 14.6133 10.264 14.9227 9.4 15.136C8.54667 15.36 7.68267 15.472 6.808 15.472ZM18.188 7.504C18.028 7.504 17.8947 7.45067 17.788 7.344C17.692 7.22667 17.644 7.088 17.644 6.928C17.644 6.72533 17.724 6.54933 17.884 6.4C18.044 6.25067 18.22 6.176 18.412 6.176C18.5827 6.176 18.7213 6.22933 18.828 6.336C18.9347 6.44267 18.988 6.57067 18.988 6.72C18.988 6.92267 18.908 7.104 18.748 7.264C18.588 7.424 18.4013 7.504 18.188 7.504ZM16.892 14C16.4973 14 16.22 13.888 16.06 13.664C15.9 13.4293 15.82 13.1627 15.82 12.864C15.82 12.704 15.836 12.544 15.868 12.384C15.9107 12.2133 15.9587 12.0587 16.012 11.92L17.084 9.184C17.116 9.09867 17.132 9.024 17.132 8.96C17.132 8.85333 17.1053 8.76267 17.052 8.688C16.9987 8.60267 16.9613 8.544 16.94 8.512L17.82 8.48C17.98 8.46933 18.092 8.49067 18.156 8.544C18.2307 8.58667 18.268 8.64 18.268 8.704C18.268 8.768 18.2307 8.88533 18.156 9.056L16.828 12.176C16.828 12.176 16.796 12.2453 16.732 12.384C16.6787 12.512 16.6467 12.5973 16.636 12.64C16.604 12.8 16.5827 12.9013 16.572 12.944C16.5613 12.9867 16.556 13.0133 16.556 13.024C16.556 13.0347 16.556 13.0773 16.556 13.152C16.556 13.2907 16.588 13.408 16.652 13.504C16.7267 13.6 16.8493 13.648 17.02 13.648C17.1267 13.648 17.2493 13.616 17.388 13.552C17.5267 13.488 17.628 13.424 17.692 13.36C17.9587 13.0827 18.22 12.72 18.476 12.272C18.7427 11.8133 18.988 11.36 19.212 10.912C19.2547 10.8053 19.308 10.752 19.372 10.752C19.4253 10.752 19.452 10.7893 19.452 10.864C19.452 10.9067 19.436 10.9707 19.404 11.056C19.2973 11.28 19.164 11.5573 19.004 11.888C18.844 12.2187 18.652 12.5493 18.428 12.88C18.2147 13.2 17.98 13.4667 17.724 13.68C17.468 13.8933 17.1907 14 16.892 14ZM19.5765 14.064C19.0538 14.064 18.6805 13.9307 18.4565 13.664C18.2432 13.3867 18.1365 13.0987 18.1365 12.8C18.1365 12.5547 18.1952 12.3307 18.3125 12.128C18.4405 11.9253 18.5898 11.8187 18.7605 11.808C18.9738 11.392 19.2032 10.9387 19.4485 10.448C19.7045 9.95733 19.9392 9.48267 20.1525 9.024C20.3018 8.71467 20.4885 8.416 20.7125 8.128C20.9472 7.84 21.2032 7.67467 21.4805 7.632H21.6405C21.7258 7.632 21.8005 7.63733 21.8645 7.648C21.9392 7.65867 22.0138 7.68 22.0885 7.712C22.2058 7.76533 22.2645 7.84533 22.2645 7.952C22.2645 8.016 22.2272 8.048 22.1525 8.048C22.1205 8.048 22.0778 8.032 22.0245 8C21.8965 7.94667 21.7845 7.92 21.6885 7.92C21.6245 7.92 21.5658 7.936 21.5125 7.968C21.3098 8.07467 21.1658 8.224 21.0805 8.416C21.0058 8.608 20.9685 8.81067 20.9685 9.024C20.9685 9.19467 20.9845 9.37067 21.0165 9.552C21.0592 9.72267 21.1072 9.87733 21.1605 10.016C21.2778 10.3147 21.4005 10.608 21.5285 10.896C21.6672 11.184 21.7365 11.4933 21.7365 11.824C21.7365 12.144 21.6298 12.4853 21.4165 12.848C21.2032 13.2 20.9312 13.4827 20.6005 13.696L20.7125 13.712C20.7658 13.7227 20.8032 13.728 20.8245 13.728C20.8458 13.728 20.8618 13.728 20.8725 13.728C21.1178 13.728 21.3472 13.6587 21.5605 13.52C21.7845 13.3707 21.9818 13.1893 22.1525 12.976C22.3232 12.7627 22.5152 12.464 22.7285 12.08C22.9525 11.696 23.1658 11.2907 23.3685 10.864C23.4005 10.8107 23.4378 10.784 23.4805 10.784C23.5338 10.784 23.5712 10.8053 23.5925 10.848C23.6245 10.88 23.6298 10.9227 23.6085 10.976C23.4698 11.2747 23.3098 11.6 23.1285 11.952C22.9578 12.2933 22.7605 12.624 22.5365 12.944C22.3125 13.2533 22.0512 13.5093 21.7525 13.712C21.4645 13.904 21.1392 14 20.7765 14C20.6912 14 20.6005 13.9947 20.5045 13.984C20.4085 13.9733 20.3125 13.952 20.2165 13.92C20.1098 13.9627 19.9978 13.9947 19.8805 14.016C19.7738 14.048 19.6725 14.064 19.5765 14.064ZM20.0565 13.584C20.2378 13.4347 20.3978 13.216 20.5365 12.928C20.6858 12.64 20.7605 12.2613 20.7605 11.792C20.7605 11.376 20.7178 10.9333 20.6325 10.464C20.5472 9.99467 20.5045 9.57867 20.5045 9.216C20.5045 9.14133 20.5045 9.07733 20.5045 9.024C20.5152 8.96 20.5258 8.90133 20.5365 8.848C20.3978 9.136 20.2378 9.472 20.0565 9.856C19.8752 10.2293 19.6938 10.592 19.5125 10.944C19.3312 11.296 19.1765 11.5947 19.0485 11.84C19.0485 11.84 19.0752 11.8453 19.1285 11.856C19.1925 11.856 19.2512 11.8933 19.3045 11.968C19.3578 12.032 19.3792 12.1653 19.3685 12.368C19.3578 12.6347 19.4165 12.8853 19.5445 13.12C19.6832 13.344 19.8538 13.4987 20.0565 13.584ZM19.4485 13.808C19.5125 13.808 19.5712 13.8027 19.6245 13.792C19.6778 13.7707 19.7258 13.7547 19.7685 13.744C19.6085 13.6267 19.4645 13.472 19.3365 13.28C19.2192 13.0773 19.1498 12.8213 19.1285 12.512C18.9365 12.7147 18.8405 12.9333 18.8405 13.168C18.8405 13.3387 18.8938 13.488 19.0005 13.616C19.1072 13.744 19.2565 13.808 19.4485 13.808ZM25.1099 5.248C25.0885 5.25867 25.0725 5.26933 25.0619 5.28C25.0512 5.28 25.0352 5.28 25.0139 5.28C24.9605 5.28 24.9339 5.25867 24.9339 5.216C24.9339 5.152 24.9819 5.104 25.0779 5.072C25.3872 4.976 25.6592 4.81067 25.8939 4.576C26.1285 4.34133 26.2672 4.04267 26.3099 3.68C26.1712 3.78667 26.0165 3.84 25.8459 3.84C25.6859 3.84 25.5525 3.792 25.4459 3.696C25.3392 3.58933 25.2859 3.46133 25.2859 3.312C25.2859 3.07733 25.3659 2.89067 25.5259 2.752C25.6859 2.60267 25.8672 2.528 26.0699 2.528C26.3045 2.528 26.4699 2.61867 26.5659 2.8C26.6725 2.98133 26.7259 3.17867 26.7259 3.392C26.7259 3.744 26.6352 4.048 26.4539 4.304C26.2832 4.54933 26.0699 4.752 25.8139 4.912C25.5685 5.06133 25.3339 5.17333 25.1099 5.248ZM31.4648 15.504C30.6968 15.504 29.9554 15.408 29.2408 15.216C28.5261 15.0347 27.8861 14.7573 27.3207 14.384C26.7554 14.0107 26.3021 13.5413 25.9608 12.976C25.6301 12.4107 25.4648 11.744 25.4648 10.976C25.4648 10.4107 25.5661 9.808 25.7688 9.168C25.8861 8.80533 26.0514 8.496 26.2648 8.24C26.4888 7.984 26.7181 7.78667 26.9528 7.648C27.1874 7.50933 27.3741 7.44 27.5128 7.44C27.6941 7.44 27.7688 7.52533 27.7368 7.696C27.6728 7.77067 27.5608 7.86133 27.4008 7.968C27.2514 8.064 27.0861 8.192 26.9048 8.352C26.7341 8.512 26.5688 8.72 26.4088 8.976C26.2594 9.22133 26.1528 9.536 26.0888 9.92C26.0674 10.0587 26.0461 10.1973 26.0247 10.336C26.0141 10.4747 26.0088 10.608 26.0088 10.736C26.0088 11.4293 26.1581 12.0427 26.4568 12.576C26.7554 13.1093 27.1448 13.552 27.6248 13.904C28.1154 14.256 28.6488 14.5173 29.2248 14.688C29.8114 14.8693 30.3874 14.9547 30.9528 14.944C31.8168 14.9227 32.5848 14.8 33.2568 14.576C33.9288 14.3627 34.5261 14.0747 35.0488 13.712C35.5714 13.3493 36.0301 12.9493 36.4248 12.512C36.7554 12.1493 37.0861 11.7067 37.4168 11.184C37.7474 10.6613 38.0674 10.1013 38.3768 9.504C38.6968 8.896 38.9954 8.29333 39.2728 7.696C39.5608 7.09867 39.8274 6.53333 40.0728 6C40.3181 5.46667 40.5314 5.01333 40.7128 4.64C40.8941 4.256 41.0434 3.98933 41.1608 3.84C40.3181 3.584 39.5074 3.38667 38.7288 3.248C37.9608 3.09867 37.1394 3.00267 36.2648 2.96C35.4648 2.91733 34.7501 3.008 34.1208 3.232C33.5021 3.456 32.9741 3.76 32.5368 4.144C32.1101 4.51733 31.7794 4.928 31.5448 5.376C31.3208 5.824 31.2088 6.256 31.2088 6.672C31.2088 7.03467 31.2994 7.36 31.4808 7.648C31.6728 7.92533 31.9608 8.128 32.3448 8.256C32.6008 8.33067 32.8514 8.368 33.0968 8.368C33.4808 8.368 33.8168 8.288 34.1048 8.128C34.3928 7.968 34.6328 7.776 34.8248 7.552C35.0274 7.31733 35.1768 7.09867 35.2728 6.896C35.3794 6.68267 35.4328 6.528 35.4328 6.432V6.416C35.4861 6.352 35.5394 6.32 35.5928 6.32C35.6994 6.32 35.7528 6.39467 35.7528 6.544C35.6994 7.00267 35.5341 7.40267 35.2568 7.744C34.9901 8.08533 34.6648 8.34667 34.2808 8.528C33.8968 8.70933 33.4914 8.8 33.0648 8.8C32.7661 8.8 32.4781 8.752 32.2008 8.656C31.6141 8.44267 31.1714 8.10133 30.8728 7.632C30.5741 7.152 30.4248 6.63467 30.4248 6.08C30.4248 5.61067 30.5261 5.14667 30.7288 4.688C30.9314 4.21867 31.2408 3.792 31.6568 3.408C32.0728 3.01333 32.5901 2.69867 33.2088 2.464C33.8274 2.22933 34.5528 2.112 35.3848 2.112C35.5234 2.112 35.6354 2.112 35.7208 2.112C35.8061 2.112 35.9501 2.12267 36.1528 2.144C36.6541 2.18667 37.1608 2.272 37.6728 2.4C38.1848 2.51733 38.6754 2.65067 39.1448 2.8C39.6141 2.94933 40.0461 3.09333 40.4408 3.232C40.8354 3.37067 41.1608 3.472 41.4167 3.536C41.4488 3.49333 41.5394 3.41867 41.6888 3.312C41.8488 3.20533 42.0088 3.09333 42.1688 2.976C42.3394 2.85867 42.4728 2.75733 42.5688 2.672C42.6648 2.58667 42.6701 2.544 42.5848 2.544H42.5688C42.6008 2.53333 42.6434 2.528 42.6968 2.528C42.8034 2.528 42.8834 2.56533 42.9368 2.64C42.9901 2.704 43.0168 2.77333 43.0168 2.848C43.0168 2.98667 42.9528 3.056 42.8248 3.056C42.8034 3.056 42.7608 3.04533 42.6968 3.024C42.6541 2.98133 42.5741 3.00267 42.4568 3.088C42.3501 3.17333 42.2381 3.27467 42.1208 3.392C42.0141 3.49867 41.9288 3.58933 41.8647 3.664C42.0994 3.73867 42.3928 3.82933 42.7448 3.936C43.1074 4.032 43.4914 4.13333 43.8968 4.24C44.3128 4.336 44.7181 4.416 45.1128 4.48C45.5074 4.544 45.8594 4.576 46.1688 4.576C46.4674 4.576 46.7021 4.53867 46.8728 4.464C47.0541 4.38933 47.1448 4.26667 47.1448 4.096C47.1448 4.032 47.1554 3.97867 47.1768 3.936C47.2088 3.88267 47.2621 3.856 47.3368 3.856C47.3901 3.856 47.4274 3.904 47.4488 4C47.4701 4.08533 47.4808 4.15467 47.4808 4.208C47.4808 4.464 47.3421 4.672 47.0648 4.832C46.7981 4.992 46.4621 5.072 46.0568 5.072C45.9928 5.072 45.9288 5.072 45.8648 5.072C45.8008 5.06133 45.7314 5.05067 45.6568 5.04C44.4621 4.89067 43.5288 4.69867 42.8568 4.464C42.1954 4.22933 41.7794 4.07467 41.6088 4C41.1288 4.768 40.7341 5.55733 40.4248 6.368C40.1154 7.17867 39.8221 7.98933 39.5448 8.8C39.2781 9.61067 38.9634 10.3947 38.6008 11.152C38.2488 11.9093 37.7794 12.624 37.1928 13.296C36.7661 13.776 36.2434 14.1813 35.6248 14.512C35.0168 14.8427 34.3554 15.088 33.6408 15.248C32.9261 15.4187 32.2008 15.504 31.4648 15.504ZM39.0944 14.128C39.5424 13.2107 40.0064 12.2507 40.4864 11.248C40.977 10.2347 41.4784 9.216 41.9904 8.192C42.5024 7.168 43.009 6.192 43.5104 5.264C43.6917 4.944 43.857 4.69333 44.0064 4.512C44.1664 4.33067 44.3744 4.24 44.6304 4.24C44.7264 4.24 44.8384 4.256 44.9664 4.288C45.0944 4.32 45.217 4.32533 45.3344 4.304C45.1957 4.45333 45.0037 4.71467 44.7584 5.088C44.5237 5.46133 44.257 5.90933 43.9584 6.432C43.6704 6.95467 43.361 7.52 43.0304 8.128C42.7104 8.72533 42.3904 9.33333 42.0704 9.952C41.761 10.56 41.473 11.1307 41.2064 11.664C41.4197 11.3867 41.6384 11.1253 41.8624 10.88C42.0864 10.6347 42.305 10.4213 42.5184 10.24C42.753 10.0267 43.0464 9.80267 43.3984 9.568C43.761 9.33333 44.1184 9.13067 44.4704 8.96C44.833 8.78933 45.121 8.704 45.3344 8.704C45.409 8.704 45.4624 8.70933 45.4944 8.72C45.4944 8.72 45.4357 8.82667 45.3184 9.04C45.201 9.25333 45.0517 9.52533 44.8704 9.856C44.6997 10.1867 44.5184 10.544 44.3264 10.928C44.145 11.312 43.985 11.68 43.8464 12.032C43.7077 12.3733 43.617 12.656 43.5744 12.88C43.5424 13.0507 43.5264 13.1947 43.5264 13.312C43.5264 13.4827 43.5584 13.6 43.6224 13.664C43.6864 13.7173 43.7557 13.744 43.8304 13.744C44.0117 13.744 44.209 13.632 44.4224 13.408C44.6357 13.184 44.8437 12.912 45.0464 12.592C45.249 12.2613 45.4304 11.9413 45.5904 11.632C45.761 11.3227 45.889 11.0827 45.9744 10.912C46.0384 10.7947 46.1024 10.736 46.1664 10.736C46.2304 10.736 46.2624 10.7787 46.2624 10.864C46.2624 10.9067 46.2464 10.9707 46.2144 11.056C46.0757 11.3333 45.9157 11.648 45.7344 12C45.5637 12.3413 45.3664 12.672 45.1424 12.992C44.929 13.3013 44.689 13.5573 44.4224 13.76C44.1664 13.9627 43.889 14.064 43.5904 14.064C43.377 14.064 43.1584 13.9893 42.9344 13.84C42.7104 13.6907 42.5984 13.4187 42.5984 13.024C42.5984 12.9067 42.609 12.784 42.6304 12.656C42.6517 12.5173 42.689 12.3627 42.7424 12.192C42.8064 11.9787 42.913 11.744 43.0624 11.488C43.2117 11.2213 43.4037 10.8907 43.6384 10.496C43.745 10.3147 43.7984 10.1707 43.7984 10.064C43.7984 9.936 43.7344 9.872 43.6064 9.872C43.4997 9.872 43.3557 9.92533 43.1744 10.032C42.993 10.1387 42.7637 10.3253 42.4864 10.592C42.2197 10.848 41.889 11.2213 41.4944 11.712C41.0997 12.2027 40.6784 12.8907 40.2304 13.776C40.1557 13.9147 40.0704 13.9893 39.9744 14C39.889 14 39.7717 14.0053 39.6224 14.016C39.5264 14.0267 39.4304 14.032 39.3344 14.032C39.2384 14.0427 39.1584 14.0747 39.0944 14.128ZM47.1101 14.064C46.7155 14.064 46.3581 13.936 46.0381 13.68C45.7288 13.424 45.5741 13.0347 45.5741 12.512C45.5741 12.032 45.6915 11.52 45.9261 10.976C46.1608 10.4213 46.4595 9.936 46.8221 9.52C47.1315 9.15733 47.4781 8.85867 47.8621 8.624C48.2461 8.38933 48.6088 8.272 48.9501 8.272C49.1848 8.272 49.3875 8.336 49.5581 8.464C49.7395 8.60267 49.8301 8.8 49.8301 9.056C49.8301 9.32267 49.7288 9.616 49.5261 9.936C49.3235 10.256 49.0355 10.5547 48.6621 10.832C48.5021 10.9493 48.2995 11.0613 48.0541 11.168C47.8088 11.2747 47.5635 11.3653 47.3181 11.44C47.0728 11.504 46.8701 11.536 46.7101 11.536C46.6568 11.664 46.6035 11.8347 46.5501 12.048C46.5075 12.2613 46.4861 12.48 46.4861 12.704C46.4861 12.9707 46.5395 13.2107 46.6461 13.424C46.7528 13.6373 46.9501 13.744 47.2381 13.744C47.5901 13.744 47.9101 13.6427 48.1981 13.44C48.4861 13.2373 48.7421 12.9867 48.9661 12.688C49.1901 12.3787 49.3768 12.0693 49.5261 11.76C49.6861 11.4507 49.8141 11.1893 49.9101 10.976C49.9741 10.8267 50.0595 10.752 50.1661 10.752C50.2195 10.752 50.2461 10.7787 50.2461 10.832C50.2461 10.8747 50.2301 10.928 50.1981 10.992C50.0488 11.312 49.8888 11.6533 49.7181 12.016C49.5475 12.368 49.3448 12.704 49.1101 13.024C48.8755 13.3333 48.5928 13.584 48.2621 13.776C47.9421 13.968 47.5581 14.064 47.1101 14.064ZM46.8221 11.248C46.9715 11.248 47.2221 11.1947 47.5741 11.088C47.9261 10.9707 48.2461 10.7893 48.5341 10.544C48.8115 10.2987 49.0248 10.032 49.1741 9.744C49.3235 9.44533 49.3981 9.19467 49.3981 8.992C49.3981 8.75733 49.3128 8.64 49.1421 8.64C49.0141 8.64 48.8381 8.72533 48.6141 8.896C48.3901 9.06667 48.1128 9.35467 47.7821 9.76C47.5795 10.016 47.3875 10.2933 47.2061 10.592C47.0248 10.8907 46.8968 11.1093 46.8221 11.248ZM48.4229 14.128C48.8069 13.3493 49.1749 12.5813 49.5269 11.824C49.8895 11.056 50.2575 10.3253 50.6309 9.632C50.8442 9.248 51.0202 8.98133 51.1589 8.832C51.3082 8.672 51.5055 8.592 51.7509 8.592C51.8362 8.592 51.9269 8.608 52.0229 8.64C52.1189 8.66133 52.2149 8.672 52.3109 8.672C52.3749 8.672 52.4229 8.66667 52.4549 8.656C52.3055 8.74133 52.1135 8.95467 51.8789 9.296C51.6442 9.62667 51.4042 10.0107 51.1589 10.448C50.9135 10.8853 50.6949 11.296 50.5029 11.68C50.7055 11.4347 50.9135 11.1893 51.1269 10.944C51.3509 10.6987 51.5962 10.464 51.8629 10.24C52.1189 10.016 52.4229 9.78667 52.7749 9.552C53.1375 9.30667 53.4895 9.104 53.8309 8.944C54.1722 8.784 54.4442 8.704 54.6469 8.704C54.7215 8.704 54.7749 8.70933 54.8069 8.72C54.8069 8.72 54.7482 8.82667 54.6309 9.04C54.5135 9.24267 54.3642 9.51467 54.1829 9.856C54.0122 10.1867 53.8362 10.544 53.6549 10.928C53.4735 11.3013 53.3082 11.664 53.1589 12.016C53.0202 12.3573 52.9295 12.6453 52.8869 12.88C52.8549 13.0187 52.8389 13.1467 52.8389 13.264C52.8389 13.4347 52.8709 13.5467 52.9349 13.6C52.9989 13.6533 53.0682 13.68 53.1429 13.68C53.3455 13.68 53.5589 13.5733 53.7829 13.36C54.0069 13.136 54.2202 12.864 54.4229 12.544C54.6362 12.224 54.8229 11.9147 54.9829 11.616C55.1535 11.3067 55.2762 11.072 55.3509 10.912C55.3935 10.8267 55.4255 10.7787 55.4469 10.768C55.4682 10.7467 55.5002 10.736 55.5429 10.736C55.6069 10.736 55.6389 10.7787 55.6389 10.864C55.6389 10.9173 55.6229 10.976 55.5909 11.04C55.4629 11.2853 55.3082 11.5787 55.1269 11.92C54.9562 12.2613 54.7589 12.5973 54.5349 12.928C54.3109 13.248 54.0655 13.52 53.7989 13.744C53.5322 13.9573 53.2442 14.064 52.9349 14.064C52.7215 14.064 52.4975 13.9893 52.2629 13.84C52.0389 13.6907 51.9269 13.4133 51.9269 13.008C51.9269 12.8907 51.9375 12.768 51.9589 12.64C51.9802 12.5013 52.0175 12.352 52.0709 12.192C52.1562 11.9787 52.2575 11.7493 52.3749 11.504C52.4922 11.2587 52.6842 10.9227 52.9509 10.496C53.0255 10.3787 53.0682 10.288 53.0789 10.224C53.1002 10.16 53.1109 10.1067 53.1109 10.064C53.1109 9.936 53.0522 9.872 52.9349 9.872C52.8389 9.872 52.6949 9.92533 52.5029 10.032C52.3215 10.1387 52.0922 10.3253 51.8149 10.592C51.5482 10.848 51.2282 11.2107 50.8549 11.68C50.4922 12.1493 50.0709 12.8427 49.5909 13.76C49.5162 13.8987 49.4309 13.9733 49.3349 13.984C49.2495 13.9947 49.1269 14.0053 48.9669 14.016C48.8602 14.0267 48.7589 14.032 48.6629 14.032C48.5669 14.0427 48.4869 14.0747 48.4229 14.128ZM57.0299 7.952C56.8699 7.952 56.7365 7.89867 56.6299 7.792C56.5339 7.67467 56.4859 7.536 56.4859 7.376C56.4859 7.17333 56.5659 6.99733 56.7259 6.848C56.8859 6.69867 57.0619 6.624 57.2539 6.624C57.4245 6.624 57.5632 6.67733 57.6699 6.784C57.7765 6.89067 57.8299 7.01867 57.8299 7.168C57.8299 7.37067 57.7499 7.552 57.5899 7.712C57.4299 7.872 57.2432 7.952 57.0299 7.952ZM49.5899 19.104C49.0352 19.104 48.6459 18.992 48.4219 18.768C48.1872 18.5547 48.0699 18.2987 48.0699 18C48.0699 17.712 48.1499 17.424 48.3099 17.136C48.4592 16.8267 48.6672 16.56 48.9339 16.336C49.2005 16.1227 49.4939 15.9413 49.8139 15.792C50.3579 15.536 50.9872 15.328 51.7019 15.168C52.4059 15.008 53.0832 14.832 53.7339 14.64C53.8192 14.4907 53.9099 14.336 54.0059 14.176C54.0912 14.016 54.1712 13.8613 54.2459 13.712C54.4592 13.2853 54.6512 12.9013 54.8219 12.56C54.9925 12.208 55.1739 11.824 55.3659 11.408C55.3339 11.408 55.2965 11.3973 55.2539 11.376C55.2219 11.3547 55.2059 11.3227 55.2059 11.28C55.2059 11.2373 55.2165 11.1947 55.2379 11.152L56.0699 9.296C56.0805 9.27467 56.0912 9.248 56.1019 9.216C56.1125 9.17333 56.1179 9.13067 56.1179 9.088C56.1179 8.98133 56.0912 8.88533 56.0379 8.8C55.9845 8.71467 55.9472 8.656 55.9259 8.624L56.8059 8.592C56.9659 8.58133 57.0779 8.60267 57.1419 8.656C57.2165 8.69867 57.2539 8.752 57.2539 8.816C57.2539 8.88 57.2165 8.99733 57.1419 9.168L55.8619 12.176C55.7125 12.528 55.5525 12.88 55.3819 13.232C55.2112 13.584 55.0352 13.9413 54.8539 14.304C55.1739 14.176 55.4672 14.0533 55.7339 13.936C56.0005 13.808 56.2565 13.648 56.5019 13.456C56.7472 13.2533 56.9925 12.976 57.2379 12.624C57.4512 12.3147 57.6432 11.9893 57.8139 11.648C57.9845 11.3067 58.1072 11.0667 58.1819 10.928C58.2245 10.8427 58.2619 10.7893 58.2939 10.768C58.3365 10.7467 58.3632 10.736 58.3739 10.736C58.4379 10.736 58.4699 10.7733 58.4699 10.848C58.4699 10.9013 58.4485 10.9653 58.4059 11.04C58.1392 11.6053 57.8939 12.0853 57.6699 12.48C57.4459 12.864 57.2059 13.1947 56.9499 13.472C56.7045 13.7387 56.3952 13.9733 56.0219 14.176C55.6485 14.3893 55.1739 14.6027 54.5979 14.816C54.3419 15.2747 54.0485 15.7493 53.7179 16.24C53.3872 16.7413 53.0139 17.2053 52.5979 17.632C52.1819 18.0693 51.7285 18.4213 51.2379 18.688C50.7365 18.9653 50.1872 19.104 49.5899 19.104ZM49.2059 18.784C49.5579 18.784 49.9259 18.6773 50.3099 18.464C50.6832 18.2507 51.0459 17.9787 51.3979 17.648C51.7499 17.328 52.0752 16.9973 52.3739 16.656C52.6619 16.3147 52.8965 16.016 53.0779 15.76C53.1419 15.6747 53.2005 15.5787 53.2539 15.472C53.3072 15.3653 53.3605 15.2587 53.4139 15.152C52.9019 15.2907 52.3365 15.44 51.7179 15.6C51.0992 15.7707 50.5552 15.9573 50.0859 16.16C49.5739 16.3733 49.1739 16.672 48.8859 17.056C48.5979 17.4507 48.4539 17.8027 48.4539 18.112C48.4539 18.3147 48.5179 18.4747 48.6459 18.592C48.7632 18.72 48.9499 18.784 49.2059 18.784ZM59.9536 7.504C59.7936 7.504 59.6603 7.45067 59.5536 7.344C59.4576 7.22667 59.4096 7.088 59.4096 6.928C59.4096 6.72533 59.4896 6.54933 59.6496 6.4C59.8096 6.25067 59.9856 6.176 60.1776 6.176C60.3483 6.176 60.487 6.22933 60.5936 6.336C60.7003 6.44267 60.7536 6.57067 60.7536 6.72C60.7536 6.92267 60.6736 7.104 60.5136 7.264C60.3536 7.424 60.167 7.504 59.9536 7.504ZM58.6576 14C58.263 14 57.9856 13.888 57.8256 13.664C57.6656 13.4293 57.5856 13.1627 57.5856 12.864C57.5856 12.704 57.6016 12.544 57.6336 12.384C57.6763 12.2133 57.7243 12.0587 57.7776 11.92L58.8496 9.184C58.8816 9.09867 58.8976 9.024 58.8976 8.96C58.8976 8.85333 58.871 8.76267 58.8176 8.688C58.7643 8.60267 58.727 8.544 58.7056 8.512L59.5856 8.48C59.7456 8.46933 59.8576 8.49067 59.9216 8.544C59.9963 8.58667 60.0336 8.64 60.0336 8.704C60.0336 8.768 59.9963 8.88533 59.9216 9.056L58.5936 12.176C58.5936 12.176 58.5616 12.2453 58.4976 12.384C58.4443 12.512 58.4123 12.5973 58.4016 12.64C58.3696 12.8 58.3483 12.9013 58.3376 12.944C58.327 12.9867 58.3216 13.0133 58.3216 13.024C58.3216 13.0347 58.3216 13.0773 58.3216 13.152C58.3216 13.2907 58.3536 13.408 58.4176 13.504C58.4923 13.6 58.615 13.648 58.7856 13.648C58.8923 13.648 59.015 13.616 59.1536 13.552C59.2923 13.488 59.3936 13.424 59.4576 13.36C59.7243 13.0827 59.9856 12.72 60.2416 12.272C60.5083 11.8133 60.7536 11.36 60.9776 10.912C61.0203 10.8053 61.0736 10.752 61.1376 10.752C61.191 10.752 61.2176 10.7893 61.2176 10.864C61.2176 10.9067 61.2016 10.9707 61.1696 11.056C61.063 11.28 60.9296 11.5573 60.7696 11.888C60.6096 12.2187 60.4176 12.5493 60.1936 12.88C59.9803 13.2 59.7456 13.4667 59.4896 13.68C59.2336 13.8933 58.9563 14 58.6576 14Z" fill="black"/>
</svg>
